<svg xmlns="http://www.w3.org/2000/svg" xmlns:xlink="http://www.w3.org/1999/xlink" width="1080" zoomAndPan="magnify" viewBox="0 0 810 809.999993" height="1080" preserveAspectRatio="xMidYMid meet" version="1.2"><g id="1dbe9ac760"><path style=" stroke:none;fill-rule:nonzero;fill:#661424;fill-opacity:1;" d="M 615.65625 496.28125 L 612.589844 495.054688 L 612.589844 494.75 Z M 615.65625 496.28125 "/><path style=" stroke:none;fill-rule:nonzero;fill:#661424;fill-opacity:1;" d="M 435.996094 151.0625 L 445.507812 151.0625 L 445.507812 140.019531 L 430.183594 140.019531 C 439.082031 136.347656 445.210938 127.445312 445.210938 117.328125 C 445.210938 107.210938 443.070312 106.289062 439.691406 102.003906 C 439.375 101.394531 438.769531 101.082031 438.472656 100.785156 C 438.160156 100.472656 437.550781 99.863281 437.253906 99.570312 C 435.113281 97.425781 432.65625 95.894531 429.59375 94.65625 L 421.617188 -102.179688 L 418.867188 -102.179688 L 410.890625 94.65625 C 408.140625 95.875 405.683594 97.40625 403.226562 99.570312 C 402.914062 99.882812 402.304688 100.492188 402.007812 100.785156 C 401.695312 101.394531 401.085938 101.710938 400.792969 102.003906 C 397.414062 106.289062 395.269531 111.511719 395.269531 117.328125 C 395.269531 127.445312 401.402344 136.347656 410.300781 140.019531 L 394.976562 140.019531 L 394.976562 151.0625 L 404.484375 151.0625 C 404.484375 151.0625 389.457031 201.335938 350.515625 229.234375 L 391.597656 216.367188 L 448 216.367188 L 489.082031 229.234375 C 450.457031 201.335938 435.113281 151.0625 435.113281 151.0625 L 436.039062 151.0625 Z M 435.996094 151.0625 "/><path style=" stroke:none;fill-rule:nonzero;fill:#661424;fill-opacity:1;" d="M 616.269531 496.589844 L 615.964844 496.28125 Z M 616.269531 496.589844 "/><path style=" stroke:none;fill-rule:nonzero;fill:#661424;fill-opacity:1;" d="M 576.410156 762.082031 L 576.410156 597.132812 C 575.800781 561.570312 555.859375 555.738281 555.859375 555.738281 C 555.859375 555.738281 526.429688 540.707031 527.039062 575.050781 L 527.039062 762.0625 L 455.289062 762.0625 L 455.289062 577.503906 C 455.898438 539.804688 416.351562 540.097656 416.351562 540.097656 C 416.351562 540.097656 375.269531 537.957031 375.878906 577.191406 L 375.878906 762.0625 L 335.410156 762.0625 L 335.410156 491.648438 L 504.640625 491.648438 L 610.101562 533.96875 L 610.101562 591 L 639.847656 554.203125 L 648.433594 524.164062 L 494.523438 457.328125 L 335.09375 457.328125 L 327.433594 444.144531 L 495.449219 444.144531 C 495.449219 444.144531 619.925781 498.410156 619.925781 498.410156 C 619.316406 489.214844 616.546875 338.054688 488.101562 243.027344 L 454.996094 232.59375 C 454.996094 232.59375 585.289062 309.546875 590.8125 461.296875 L 497.292969 424.5 C 496.074219 397.210938 490.554688 342.945312 469.082031 289.292969 C 467.550781 285.304688 466.015625 281.316406 464.171875 277.328125 C 457.117188 261.394531 448.238281 245.441406 437.804688 230.726562 L 392.128906 230.726562 L 351.96875 243.300781 C 267.960938 300.941406 237.3125 400.273438 225.957031 457.289062 C 222.285156 476.304688 218.90625 510.019531 218.90625 510.019531 L 189.476562 523.203125 L 198.375 556.011719 L 224.132812 586.363281 L 224.132812 762.335938 L 143.796875 762.335938 L 164.957031 787.78125 L 672.972656 787.78125 L 694.128906 762.335938 L 577.019531 762.335938 L 576.410156 762.023438 Z M 310.300781 762.082031 L 261.242188 762.082031 L 261.242188 605.71875 C 260.929688 571.375 283.324219 555.128906 283.324219 555.128906 C 283.324219 555.128906 308.769531 539.804688 310.300781 567.386719 Z M 310.300781 762.082031 "/></g></svg>